<svg width="109" height="109" viewBox="0 0 109 109" fill="none" xmlns="http://www.w3.org/2000/svg">
<circle cx="54.5" cy="54.5" r="54.5" fill="#412E63"/>
<path d="M81.6991 37.2995C72.0991 22.4995 52.4991 18.0995 37.2991 27.2995C22.4991 36.4995 17.6991 56.4995 27.2991 71.2995L28.0991 72.4995L24.8991 84.4995L36.8991 81.2995L38.0991 82.0995C43.2991 84.8995 48.8991 86.4995 54.4991 86.4995C60.4991 86.4995 66.4991 84.8995 71.6991 81.6995C86.4991 72.0995 90.8991 52.4995 81.6991 37.2995ZM73.2991 68.0995C71.6991 70.4995 69.6991 72.0995 66.8991 72.4995C65.2991 72.4995 63.2991 73.2995 55.2991 70.0995C48.4991 66.8995 42.8991 61.6995 38.8991 55.6995C36.4991 52.8995 35.2991 49.2995 34.8991 45.6995C34.8991 42.4995 36.0991 39.6995 38.0991 37.6995C38.8991 36.8995 39.6991 36.4995 40.4991 36.4995H42.4991C43.2991 36.4995 44.0991 36.4995 44.4991 38.0995C45.2991 40.0995 47.2991 44.8995 47.2991 45.2995C47.6991 45.6995 47.6991 46.4995 47.2991 46.8995C47.6991 47.6995 47.2991 48.4995 46.8991 48.8995C46.4991 49.2995 46.0991 50.0995 45.6991 50.4995C44.8991 50.8995 44.4991 51.6995 44.8991 52.4995C46.4991 54.8995 48.4991 57.2995 50.4991 59.2995C52.8991 61.2995 55.2991 62.8995 58.0991 64.0995C58.8991 64.4995 59.6991 64.4995 60.0991 63.6995C60.4991 62.8995 62.4991 60.8995 63.2991 60.0995C64.0991 59.2995 64.4991 59.2995 65.2991 59.6995L71.6991 62.8995C72.4991 63.2995 73.2991 63.6995 73.6991 64.0995C74.0991 65.2995 74.0991 66.8995 73.2991 68.0995Z" fill="white"/>
</svg>
