<svg width="109" height="109" viewBox="0 0 109 109" fill="none" xmlns="http://www.w3.org/2000/svg">
<circle cx="54.5" cy="54.5" r="54.5" fill="#412E63"/>
<path d="M29.9809 30.5H82.9809C87.9809 30.5 90.5009 32.86 90.5009 37.66V71.34C90.5009 76.1 87.9809 78.5 82.9809 78.5H29.9809C24.9809 78.5 22.4609 76.1 22.4609 71.34V37.66C22.4609 32.86 24.9809 30.5 29.9809 30.5ZM56.4609 64.9L83.4209 42.78C84.3809 41.98 85.1409 40.14 83.9409 38.5C82.7809 36.86 80.6609 36.82 79.2609 37.82L56.4609 53.26L33.7009 37.82C32.3009 36.82 30.1809 36.86 29.0209 38.5C27.8209 40.14 28.5809 41.98 29.5409 42.78L56.4609 64.9Z" fill="white"/>
</svg>
