<svg width="109" height="109" viewBox="0 0 109 109" fill="none" xmlns="http://www.w3.org/2000/svg">
<circle cx="54.5" cy="54.5" r="54.5" fill="#412E63"/>
<path d="M87.7106 77.3462C87.2664 79.2593 86.2166 80.9778 84.7172 82.2463C83.0442 83.9478 81.0472 85.297 78.8442 86.2141C76.6412 87.1313 74.2768 87.5978 71.8906 87.5863H70.6972C65.7437 87.3313 60.8885 86.1059 56.4072 83.9796C55.3206 83.4696 54.2639 82.9929 53.0072 82.4129C47.7539 79.4464 42.9323 75.7732 38.6772 71.4963C33.1446 66.3094 28.6116 60.1506 25.3039 53.3263C23.4823 49.6037 22.2552 45.6187 21.6672 41.5162C20.8508 37.241 21.3362 32.8192 23.0606 28.8229C24.132 27.0064 25.4488 25.3463 26.9739 23.8896C27.6693 23.1321 28.5097 22.522 29.4453 22.0954C30.381 21.6688 31.3927 21.4345 32.4206 21.4062C33.5415 21.5251 34.6274 21.8664 35.6147 22.4101C36.602 22.9539 37.4709 23.6892 38.1706 24.5729C39.7372 26.3063 41.5706 27.9729 43.2372 29.7396L45.3839 31.8529C46.6506 32.9629 47.4339 34.5262 47.5606 36.2063C47.5639 37.7529 46.9939 39.2429 45.9606 40.3929C45.3086 41.1982 44.6166 41.9703 43.8872 42.7063L43.1706 43.4562C42.753 43.8439 42.4272 44.3199 42.2172 44.8496C42.0439 45.3629 41.9839 45.9096 42.0506 46.4496C42.5972 47.9296 43.4539 49.2763 44.5673 50.3963C46.3006 52.7429 47.9673 54.7863 49.8406 57.2029C53.0702 60.932 56.9008 64.0945 61.1739 66.5596C61.5839 66.8929 62.0739 67.1162 62.6006 67.2062C63.0672 67.2762 63.5373 67.2062 63.9606 66.9996C65.2577 66.3034 66.4122 65.3694 67.3639 64.2463C68.5639 62.7663 70.3039 61.8262 72.1973 61.6229C73.106 61.6267 74.0048 61.8123 74.8406 62.169C75.6765 62.5257 76.4324 63.0461 77.0639 63.6996C77.8406 64.3696 78.5806 65.0863 79.2739 65.8429L80.2939 66.9329L81.3506 67.9529C81.9939 68.5996 82.6072 69.1796 83.2172 69.8596C84.3272 70.8129 85.3639 71.8462 86.3172 72.9562C87.2939 74.2029 87.7872 75.7629 87.7106 77.3462Z" fill="white"/>
</svg>
