<svg width="71" height="71" viewBox="0 0 71 71" fill="none" xmlns="http://www.w3.org/2000/svg">
<path d="M6.63395 14.6919C4.72656 18.4353 4.72656 23.3358 4.72656 33.1367V38.3867C4.72656 48.1876 4.72656 53.0881 6.63395 56.8316C8.31173 60.1244 10.9889 62.8015 14.2817 64.4793C18.0252 66.3867 22.9256 66.3867 32.7266 66.3867H37.9766C47.7775 66.3867 52.6779 66.3867 56.4214 64.4793C59.7142 62.8015 62.3914 60.1244 64.0692 56.8316C65.9766 53.0881 65.9766 48.1876 65.9766 38.3867V33.1367C65.9766 23.3358 65.9766 18.4353 64.0692 14.6919C62.3914 11.399 59.7142 8.72189 56.4214 7.0441C52.6779 5.13672 47.7775 5.13672 37.9766 5.13672H32.7266C22.9256 5.13672 18.0252 5.13672 14.2817 7.0441C10.9889 8.72189 8.31173 11.399 6.63395 14.6919Z" fill="url(#paint0_linear_200_739)"/>
<path d="M5.30674 18.8731C4.72656 22.1703 4.72656 26.5452 4.72656 33.1365V38.3865C4.72656 48.1875 4.72656 53.0879 6.63395 56.8314C8.31173 60.1242 10.9889 62.8014 14.2817 64.4791C18.0252 66.3865 22.9256 66.3865 32.7266 66.3865H37.9766C47.7775 66.3865 52.6779 66.3865 56.4214 64.4791C59.7142 62.8014 62.3914 60.1242 64.0692 56.8314C65.9766 53.0879 65.9766 48.1875 65.9766 38.3865V33.1365C65.9766 23.3356 65.9766 18.4352 64.0692 14.6917C62.4498 11.5134 59.8993 8.90874 56.7628 7.22266L5.30674 18.8731Z" fill="url(#paint1_linear_200_739)"/>
<path d="M65.3437 52.9414C65.0624 54.4196 64.6563 55.6797 64.0699 56.8305C62.3922 60.1233 59.715 62.8005 56.4222 64.4783C52.7907 66.3286 48.0705 66.3839 38.8441 66.3856H35.4805V59.4661L65.3437 52.9414Z" fill="url(#paint2_linear_200_739)"/>
<path d="M37.9766 5.13672H32.7266C30.8198 5.13672 29.0985 5.13672 27.5352 5.15076V13.8222L56.7571 7.21977C56.646 7.16006 56.534 7.1015 56.4214 7.0441C54.3432 5.98521 51.9084 5.51417 48.4766 5.30462C45.7266 5.13672 42.3365 5.13672 37.9766 5.13672Z" fill="url(#paint3_linear_200_739)"/>
<path d="M65.9769 38.7667C65.9767 45.3414 65.965 49.6752 65.3433 52.9432L54.957 55.2124V39.7346L65.9769 37.1719V38.7667Z" fill="url(#paint4_linear_200_739)"/>
<path fill-rule="evenodd" clip-rule="evenodd" d="M33.0367 30.0267C33.0367 28.6209 34.1861 28.0801 36.0898 28.0801C38.8197 28.0801 42.2679 28.9092 44.9978 30.3872V21.916C42.0165 20.7264 39.0711 20.2578 36.0898 20.2578C28.7983 20.2578 23.9492 24.0789 23.9492 30.4593C23.9492 40.4084 37.5984 38.8223 37.5984 43.112C37.5984 44.7702 36.1617 45.3109 34.1502 45.3109C31.1689 45.3109 27.3615 44.0853 24.3443 42.4271V51.0064C27.6848 52.4483 31.0612 53.0612 34.1502 53.0612C41.6214 53.0612 46.7578 49.3482 46.7578 42.8957C46.7219 32.1535 33.0367 34.0641 33.0367 30.0267Z" fill="white"/>
<defs>
<linearGradient id="paint0_linear_200_739" x1="4.72656" y1="5.13672" x2="24.8442" y2="19.36" gradientUnits="userSpaceOnUse">
<stop stop-color="#392993"/>
<stop offset="1" stop-color="#4B47B9"/>
</linearGradient>
<linearGradient id="paint1_linear_200_739" x1="7.03305" y1="19.5182" x2="51.4442" y2="56.1512" gradientUnits="userSpaceOnUse">
<stop stop-color="#594BB9"/>
<stop offset="1" stop-color="#60A8F2"/>
</linearGradient>
<linearGradient id="paint2_linear_200_739" x1="35.4805" y1="59.7225" x2="65.9773" y2="66.3857" gradientUnits="userSpaceOnUse">
<stop stop-color="#61A2EF"/>
<stop offset="1" stop-color="#58E6FD"/>
</linearGradient>
<linearGradient id="paint3_linear_200_739" x1="27.5352" y1="9.49341" x2="65.9766" y2="5.13672" gradientUnits="userSpaceOnUse">
<stop stop-color="#534EBE"/>
<stop offset="1" stop-color="#6875E2"/>
</linearGradient>
<linearGradient id="paint4_linear_200_739" x1="54.957" y1="39.8628" x2="65.9769" y2="53.061" gradientUnits="userSpaceOnUse">
<stop stop-color="#71A5F3"/>
<stop offset="1" stop-color="#6CC3FA"/>
</linearGradient>
</defs>
</svg>
